<?xml version="1.0" standalone="no"?>
<!DOCTYPE svg PUBLIC "-//W3C//DTD SVG 20010904//EN"
 "http://www.w3.org/TR/2001/REC-SVG-20010904/DTD/svg10.dtd">
<svg version="1.0" xmlns="http://www.w3.org/2000/svg"
 width="420.000000pt" height="420.000000pt" viewBox="0 0 420.000000 420.000000"
 preserveAspectRatio="xMidYMid meet">
<metadata>
Created by potrace 1.11, written by Peter Selinger 2001-2013
</metadata>
<g transform="translate(0.000000,420.000000) scale(0.100000,-0.100000)"
fill="#000000" stroke="none">
<path d="M2581 4184 c-18 -8 -44 -14 -57 -14 -14 0 -30 -10 -40 -25 -9 -14
-22 -25 -28 -25 -7 0 -31 -16 -53 -35 l-41 -35 -16 24 -15 24 -213 1 c-119 1
-237 6 -269 13 -48 10 -67 9 -130 -7 -67 -16 -101 -17 -374 -9 -372 10 -372
10 -403 -13 -38 -28 -95 -166 -95 -229 0 -45 5 -58 35 -96 39 -47 49 -86 54
-211 2 -43 8 -93 13 -110 6 -18 8 -59 5 -92 -9 -103 -1 -163 30 -209 18 -29
21 -82 6 -122 -9 -22 -7 -31 10 -49 l21 -23 -25 -27 c-36 -39 -37 -106 -1
-129 14 -9 25 -23 25 -31 0 -8 11 -30 24 -50 15 -21 29 -63 36 -108 6 -39 20
-115 30 -167 21 -108 18 -141 -16 -177 -13 -14 -24 -36 -24 -48 0 -21 -33 -53
-97 -95 -27 -17 -133 -240 -133 -280 0 -14 -7 -61 -14 -105 -8 -44 -13 -82
-10 -86 6 -10 -40 -94 -72 -131 -45 -51 -75 -105 -80 -141 -2 -17 -9 -61 -15
-97 -9 -56 -8 -77 10 -154 12 -49 34 -118 50 -155 16 -36 34 -86 40 -111 20
-82 34 -121 40 -111 3 5 7 -15 8 -45 1 -34 9 -63 20 -78 23 -31 62 -53 71 -41
4 6 14 11 22 13 8 2 12 0 7 -4 -4 -4 2 -17 12 -28 13 -13 24 -47 31 -91 6 -39
13 -83 16 -100 4 -23 3 -26 -5 -15 -8 11 -11 2 -11 -36 0 -57 -7 -64 -63 -64
-34 0 -97 -20 -97 -31 0 -9 21 -15 80 -24 25 -4 81 -15 125 -25 44 -10 118
-27 164 -37 66 -14 94 -25 130 -54 54 -43 94 -64 137 -73 28 -6 44 2 135 65
139 96 178 115 284 140 50 11 122 33 160 49 39 16 95 30 125 32 31 3 69 11 85
20 17 9 60 32 97 51 37 19 64 38 60 43 -4 4 -1 4 6 0 13 -8 78 27 84 44 2 6
44 25 93 44 109 40 172 70 245 113 85 52 116 57 340 58 113 1 213 5 223 9 10
5 34 43 53 86 28 60 46 85 80 111 49 37 57 59 19 59 -15 0 -34 11 -48 27 -47
57 -67 73 -90 73 -26 0 -137 110 -137 136 0 10 -15 14 -60 14 -48 0 -61 4 -69
19 -6 10 -8 21 -5 24 3 3 9 160 14 348 9 341 14 404 31 393 8 -5 15 47 9 71
-1 6 -2 57 -2 114 l1 104 46 42 c44 41 45 44 33 71 -19 45 -52 91 -80 114 -22
17 -27 17 -32 5 -3 -8 -10 -15 -16 -15 -12 0 -9 22 5 32 6 4 0 8 -13 8 -13 0
-21 4 -18 9 3 5 -1 12 -10 15 -9 4 -14 13 -10 22 3 8 2 12 -4 9 -5 -3 -14 3
-19 14 -15 27 -14 44 2 35 7 -5 6 0 -3 11 -9 11 -10 16 -2 11 7 -4 12 -2 12 7
0 8 9 22 20 32 24 22 26 55 5 96 -15 28 -15 30 7 38 13 5 31 17 41 28 16 19
16 22 -1 74 -11 30 -27 87 -37 127 -13 57 -21 72 -36 72 -10 0 -30 11 -46 24
-24 21 -28 33 -33 95 -3 39 -2 71 2 71 15 0 39 33 34 47 -3 8 -2 44 4 81 6 42
6 70 0 76 -6 6 -10 38 -10 71 0 55 -3 64 -30 90 -16 16 -30 34 -30 41 0 7 -13
15 -30 19 -16 4 -39 19 -50 33 -33 46 -52 61 -98 83 l-44 22 4 51 c2 29 17 91
33 138 15 47 25 93 22 102 -5 12 -19 16 -55 16 -26 0 -52 4 -57 9 -19 17 -61
19 -94 5z"/>
</g>
</svg>
